<svg xmlns="http://www.w3.org/2000/svg" width="280" height="48" viewBox="0 0 280 48" fill="none">
  <g transform="translate(0, 0.55)">
    <path fill="#d7a461" d="M10.08,39.83h11.66s.05-.03.04-.06L6.02,3.74s-.01-.02-.02-.02L.05,1.61s-.07.02-.05.06l12.49,28.5c.04.1.08.2.12.29.41.94.64,1.98.64,3.07,0,2.57-1.26,4.84-3.19,6.23-.03.02-.02.07.02.07Z"/>
    <path fill="#d7a461" d="M58.5,5l-5.28,1.87c-.43.16-.78.48-.96.89l-9.38,21.43s-.05.03-.07,0c-2.15-2.15-4.01-4.03-5.44-5.46-1.87-1.87-1.72-5.18-.06-6.83l6.73-6.71s.02-.04,0-.06L33.92,0s-.04-.02-.06,0l-10.17,10.08s-.02.04,0,.06l6.53,6.46c1.96,1.96,2.23,5.11.08,7.26l-5.33,5.33s-.06.01-.07,0L15.53,7.78c-.18-.41-.53-.74-.96-.89l-5.28-1.88s-.07.02-.05.06l13.92,31.74s.04.04.06,0c.69-.68,10.07-10.02,10.65-10.61,0-.02.04-.02.05,0,.58.59,9.98,9.95,10.67,10.63.02.02.05,0,.06,0l13.9-31.77s-.02-.07-.05-.05h0ZM33.97,13.65s-.08.03-.11,0l-3.43-3.43s-.03-.08,0-.11l3.43-3.43s.08-.03.11,0l3.43,3.43s.03.08,0,.11l-3.43,3.43Z"/>
    <path fill="#d7a461" d="M57.64,39.83h-11.66s-.05-.03-.05-.06L61.69,3.74s.02-.02.03-.02l5.94-2.11s.07.02.05.06l-12.49,28.5c-.04.1-.08.2-.12.29-.41.94-.64,1.98-.64,3.07,0,2.57,1.26,4.84,3.19,6.23.03.02.02.07-.02.07h0Z"/>
    <path fill="#d7a461" d="M40.87,39.4v.85c-2.26.38-4.35.92-5.02,1.59s-1.22,2.79-1.6,5.06h-.84c-.38-2.27-.93-4.38-1.6-5.06-.68-.68-2.8-1.23-5.08-1.6v-.83c2.28-.38,4.4-.93,5.08-1.6.67-.67,1.22-2.78,1.6-5.04h.84c.38,2.27.92,4.37,1.6,5.04.67.67,2.76,1.22,5.02,1.59"/>
  </g>
  <text x="76" y="34" font-family="'Plus Jakarta Sans', sans-serif" font-weight="600" font-size="22" fill="currentColor" letter-spacing="-0.5">JEMMIA POSTIZ</text>
</svg>