<svg width="38" height="60" viewBox="0 0 298 92" fill="none" xmlns="http://www.w3.org/2000/svg">
<path d="M9.58871 12.7183C10.2572 13.1709 10.779 13.8102 11.0897 14.5572C11.6043 15.8279 11.8349 17.1966 11.7652 18.5665V56.2484C11.8414 59.32 11.1499 62.3619 9.75382 65.096C8.6866 67.2444 6.94629 68.9813 4.80039 70.0399C4.77252 70.0399 4.74579 70.051 4.72609 70.0708C4.70638 70.0906 4.69531 70.1174 4.69531 70.1454C4.69531 70.1734 4.70638 70.2002 4.72609 70.22C4.74579 70.2398 4.77252 70.2509 4.80039 70.2509C7.50876 70.272 10.187 69.6795 12.6358 68.5176C14.5421 67.307 16.0957 65.6118 17.1389 63.6038C18.294 61.4355 18.8827 59.0086 18.8501 56.5498V18.5665C18.7841 17.2008 18.9987 15.836 19.4806 14.5572C19.7842 13.8059 20.3076 13.1648 20.9816 12.7183C21.189 12.5931 21.4046 12.4823 21.6271 12.3867H8.94326C9.16864 12.4759 9.38481 12.587 9.58871 12.7183Z" fill="#003A40"/>
<path d="M64.9758 54.6959C63.3833 55.5616 61.5926 55.993 59.7822 55.9469H47.4887V15.0697H58.6414C62.6642 15.0697 64.9908 16.5769 65.8764 19.1092V12.3867H37.6719C37.8729 12.4772 38.064 12.5883 38.2423 12.7183C38.924 13.2215 39.4454 13.9127 39.7433 14.7079C40.228 16.0489 40.4423 17.4732 40.3738 18.8981V51.9074C40.4429 53.4013 40.2289 54.8948 39.7433 56.3086C39.4621 57.1211 38.9379 57.8265 38.2423 58.3284C38.0744 58.4411 37.8988 58.5419 37.7169 58.6298H66.8821L68.083 51.5004C67.3926 52.8564 66.3093 53.9704 64.9758 54.6959Z" fill="#003A40"/>
<path d="M134.79 13.7885C135.23 13.1127 135.895 12.6159 136.666 12.3867H126.159L110.083 49.963L93.6766 12.3867H84.4302C85.3253 12.6452 86.121 13.1709 86.7118 13.894C87.607 15.1864 88.0068 16.7602 87.8375 18.3254V51.9828C88.0218 53.7827 87.5989 55.5927 86.6367 57.1226C86.0986 57.8679 85.3182 58.401 84.4302 58.6298H94.5472C93.6923 58.3905 92.9484 57.857 92.4457 57.1226C91.5197 55.6062 91.1089 53.829 91.2749 52.0581V18.8981L109.077 59.3684L126.624 18.672V52.2842C126.778 53.9644 126.45 55.6536 125.679 57.1527C125.31 57.8592 124.688 58.3982 123.938 58.66H136.666C135.896 58.4371 135.231 57.9453 134.79 57.2733C133.984 55.8735 133.638 54.2546 133.799 52.646V18.4912C133.638 16.8585 133.984 15.2157 134.79 13.7885Z" fill="#003A40"/>
<path d="M204.289 13.7885C204.726 13.1099 205.392 12.6123 206.165 12.3867H195.658L179.567 49.963L163.175 12.3867H153.914C154.809 12.6452 155.605 13.1709 156.196 13.894C157.104 15.1809 157.51 16.7578 157.336 18.3254V51.9828C157.521 53.7827 157.098 55.5927 156.136 57.1226C155.592 57.8689 154.806 58.4019 153.914 58.6298H164.046C163.19 58.3941 162.445 57.8598 161.945 57.1226C161.011 55.6092 160.6 53.8296 160.774 52.0581V18.8981L178.561 59.5041L196.108 18.8077V52.4199C196.256 54.0981 195.933 55.7843 195.178 57.2884C194.809 57.9949 194.187 58.5339 193.436 58.7956H206.165C205.371 58.5439 204.701 58.0002 204.289 57.2733C203.476 55.876 203.124 54.2563 203.283 52.646V18.4912C203.124 16.8568 203.476 15.2133 204.289 13.7885Z" fill="#003A40"/>
<path d="M233.948 14.5572C234.269 13.8163 234.789 13.1796 235.449 12.7183C235.655 12.59 235.871 12.479 236.095 12.3867H223.426C223.644 12.4804 223.855 12.5913 224.056 12.7183C224.733 13.1611 225.258 13.8034 225.557 14.5572C226.042 15.8562 226.257 17.2413 226.188 18.6268V52.3747C226.261 53.7644 226.03 55.1535 225.512 56.4443C225.156 57.4064 224.44 58.1907 223.516 58.6298H236.14L235.494 58.2982C234.83 57.8346 234.31 57.192 233.993 56.4443C233.475 55.1535 233.245 53.7644 233.318 52.3747V18.6268C233.245 17.237 233.475 15.848 233.993 14.5572" fill="#003A40"/>
<path d="M279.492 58.6305H293.001C292.151 58.3402 291.397 57.8184 290.825 57.1232C289.57 55.6609 288.602 53.9732 287.973 52.1492L270.666 10.2319L251.152 51.9834C250.434 53.8985 249.421 55.6887 248.15 57.289C247.294 58.1933 246.649 58.6305 246.199 58.6305H256.706C256.088 58.38 255.563 57.9416 255.205 57.3768C254.847 56.8119 254.674 56.1488 254.71 55.4803C254.777 54.0629 255.114 52.6715 255.7 51.3805L259.498 42.4273H276.25L279.957 52.104C280.553 53.3745 280.914 54.7432 281.023 56.1435C281.04 56.6634 280.904 57.1769 280.632 57.6195C280.359 58.062 279.963 58.4137 279.492 58.6305ZM261.059 38.9304L268.354 22.9081L274.989 38.9304H261.059Z" fill="#003A40"/>
<path d="M68.0847 34.5167V35.5265C65.4278 35.9636 62.9811 36.6118 62.1856 37.3955C61.39 38.1793 60.7596 40.6814 60.3093 43.4246H59.3336C58.8983 40.7568 58.2528 38.2698 57.4573 37.3955C56.6617 36.5213 54.185 35.8883 51.4531 35.5115V34.5317C54.125 34.0946 56.6017 33.4465 57.4573 32.6476C58.3129 31.8488 58.9583 29.3769 59.3336 26.709H60.3393C60.7746 29.3769 61.42 31.8488 62.2006 32.6476C62.9811 33.4465 65.4428 34.0795 68.0997 34.5167" fill="#003A40"/>
<path d="M77.914 84.4084H76.2778V71.3403H83.5279V72.8476H77.914V77.4599H83.1826V78.8918H77.914V84.4084Z" fill="#003A40"/>
<path d="M90.5427 84.4084H88.8604V71.3403H90.4826L90.5427 84.4084Z" fill="#003A40"/>
<path d="M107.562 84.4084H105.656L98.7212 73.6012V74.3247C98.7212 75.41 98.8262 76.3445 98.8262 77.1283V84.4084H97.3252V71.3403H99.2165L99.6068 71.9734L103.87 78.5752L106.121 82.1023C106.121 81.9515 106.121 81.4541 106.121 80.595C106.121 79.7358 106.121 79.0877 106.121 78.6958V71.3403H107.622L107.562 84.4084Z" fill="#003A40"/>
<path d="M121.042 84.4084H113.807V71.3403H121.042V72.8476H115.428V76.872H120.711V78.2889H115.428V82.9011H121.042V84.4084Z" fill="#003A40"/>
<path d="M132.207 87.7997C131.749 87.8202 131.292 87.7378 130.871 87.5586V86.187C131.295 86.3082 131.735 86.3691 132.177 86.3678C132.426 86.3847 132.675 86.3446 132.907 86.2506C133.138 86.1566 133.345 86.0112 133.512 85.8252C133.819 85.3846 133.972 84.8548 133.948 84.3179V71.3403H135.584V84.1371C135.651 85.1201 135.339 86.0913 134.713 86.8502C134.387 87.1787 133.994 87.4333 133.562 87.5971C133.13 87.7609 132.668 87.83 132.207 87.7997Z" fill="#003A40"/>
<path d="M148.903 84.4084H141.728V71.3403H148.903V72.8476H143.349V76.872H148.633V78.2889H143.349V82.9011H148.903V84.4084Z" fill="#003A40"/>
<path d="M165.965 84.4093H164.314L161.793 75.8781C161.522 75.038 161.301 74.1823 161.132 73.3158C160.991 74.204 160.786 75.0805 160.517 75.9384L158.07 84.4093H156.404L152.981 71.4015H154.678L156.689 79.3449C156.954 80.3363 157.16 81.343 157.304 82.3594C157.461 81.2796 157.692 80.2119 157.995 79.164L160.292 71.3262H161.973L164.359 79.2243C164.66 80.2533 164.896 81.3005 165.065 82.3594C165.201 81.3107 165.412 80.273 165.695 79.2544L167.692 71.3262H169.388L165.965 84.4093Z" fill="#003A40"/>
<path d="M181.366 84.4084H174.131V71.3403H181.366V72.8476H175.767V76.872H181.036V78.2889H175.767V82.9011H181.366V84.4084Z" fill="#003A40"/>
<path d="M186.952 84.4084V71.3403H188.573V82.9011H194.232V84.4084H186.952Z" fill="#003A40"/>
<path d="M200.807 78.9653V84.4065H199.17V71.3385H202.743C204.002 71.2404 205.258 71.5637 206.315 72.2579C206.71 72.5976 207.02 73.0254 207.221 73.5069C207.422 73.9885 207.507 74.5105 207.471 75.0313C207.502 75.8227 207.261 76.6007 206.788 77.2347C206.315 77.8686 205.639 78.32 204.874 78.5131L208.417 84.4065H206.511L203.388 79.0256L200.807 78.9653ZM200.807 77.5786H202.743C203.557 77.6457 204.368 77.4273 205.039 76.9606C205.293 76.7273 205.491 76.4393 205.619 76.1183C205.746 75.7972 205.8 75.4514 205.775 75.1067C205.804 74.7704 205.753 74.432 205.625 74.1199C205.497 73.8078 205.296 73.5311 205.039 73.313C204.322 72.8805 203.487 72.6854 202.653 72.7553H200.807V77.5786Z" fill="#003A40"/>
<path d="M216.555 77.7312L219.933 71.3403H221.689L217.381 79.2987V84.4084H215.73V79.4344L211.422 71.4006H213.208L216.555 77.7312Z" fill="#003A40"/>
</svg>